<svg width="460" height="130" viewBox="0 0 460 130" fill="none" xmlns="http://www.w3.org/2000/svg">
<g clip-path="url(#clip0_1722_450)">
<path d="M103.301 100.507C102.043 101.364 100.714 102.111 99.328 102.739C97.8854 103.368 96.3844 103.853 94.847 104.187C92.9203 104.609 90.9524 104.812 88.9804 104.793C84.6507 104.914 80.3473 104.081 76.3747 102.35C73.0632 100.852 70.2161 98.4861 68.1333 95.5014C66.0526 92.4269 64.695 88.9189 64.1629 85.2418C63.5473 81.0708 63.6587 76.8243 64.4925 72.6916C65.1686 68.7155 66.3206 64.8356 67.9233 61.136C69.5611 57.305 71.8857 53.8078 74.7818 50.818C77.8983 47.6525 81.6111 45.1397 85.7043 43.4254C90.701 41.4147 96.055 40.45 101.437 40.5906C105.29 40.5688 109.14 40.8103 112.961 41.3132C116.004 41.709 119.023 42.2725 122.004 43.0012C124.759 43.6596 127.471 44.4851 130.126 45.4732L120.56 101.107C119.301 109.322 114.978 116.752 108.465 121.895C105.258 124.408 101.631 126.327 97.7526 127.564C93.531 128.903 89.1252 129.564 84.6978 129.524C81.4271 129.578 78.16 129.284 74.9511 128.647C72.7257 128.183 70.5345 127.567 68.3929 126.804L68.3317 126.78C67.6784 126.511 67.0897 126.106 66.6048 125.591C66.1199 125.076 65.7498 124.464 65.5191 123.794C65.2884 123.125 65.2024 122.414 65.2669 121.709C65.3313 121.003 65.5447 120.32 65.8928 119.704L70.7385 110.998C71.9073 112.143 73.2468 113.1 74.7089 113.832C76.3672 114.569 78.0763 115.185 79.8229 115.675C82.1773 116.303 84.6075 116.598 87.0433 116.553C89.1381 116.68 91.2372 116.385 93.2164 115.685C95.1956 114.985 97.0148 113.895 98.5666 112.478C101.599 109.163 103.505 104.97 104.013 100.501L103.301 100.507ZM99.2172 53.5621C97.0712 53.5668 94.9534 54.0515 93.0179 54.9809C90.9831 55.9482 89.1467 57.2887 87.6034 58.9332C85.9359 60.7142 84.5638 62.7518 83.5396 64.9684C82.3972 67.426 81.5783 70.0222 81.1036 72.6916C80.7036 74.9717 80.5832 77.2922 80.7448 79.6015C80.8611 81.7419 81.3819 83.8405 82.2793 85.786C83.073 87.5182 84.2829 89.026 85.8005 90.1741C87.3744 91.309 89.2774 91.8919 91.215 91.8329C93.1264 91.8394 95.0329 91.6373 96.9008 91.2302C98.5344 90.8871 100.135 90.4026 101.685 89.7821C103.224 89.1523 104.714 88.4062 106.14 87.55L112.336 56.0545C111.167 55.541 109.961 55.1175 108.728 54.7878C107.362 54.4242 105.975 54.1418 104.576 53.9423C102.799 53.6826 101.005 53.5555 99.2084 53.5621H99.2172Z" fill="#CC0229"/>
<path d="M159.325 104.775C154.808 104.93 150.317 104.042 146.197 102.181C142.929 100.638 140.111 98.2801 138.014 95.3321C136.013 92.4034 134.725 89.0446 134.253 85.5259C133.717 81.6525 133.828 77.7164 134.583 73.8797C135.349 69.7338 136.782 65.7403 138.825 62.055C140.913 58.2169 143.595 54.7345 146.769 51.7369C150.021 48.679 153.791 46.2272 157.901 44.4964C162.252 42.6624 166.931 41.7386 171.65 41.7816C173.618 41.7315 175.583 41.965 177.485 42.4749C178.767 42.8343 180 43.3512 181.155 44.0137C182.129 44.5681 183.004 45.282 183.743 46.1259H184.344L185.607 39.3066L189.513 39.6343C190.958 39.7557 192.362 40.1722 193.64 40.8582C194.918 41.5442 196.042 42.4852 196.944 43.6232C197.846 44.7613 198.506 46.0723 198.884 47.4757C199.261 48.8791 199.349 50.3452 199.14 51.7837L191.619 103.564L176.578 104.77L176.458 98.6261H175.857C174.165 99.7741 172.394 100.802 170.559 101.704C168.849 102.569 167.068 103.285 165.235 103.845C163.324 104.455 161.331 104.769 159.325 104.775V104.775ZM161.551 91.801C163.838 91.8222 166.117 91.5168 168.319 90.8941C170.205 90.3641 172.031 89.6365 173.765 88.7234C175.498 87.8446 177.149 86.8148 178.702 85.6459L182.129 59.0944C181.433 58.2547 180.598 57.5413 179.661 56.9852C178.461 56.3078 177.177 55.7904 175.843 55.4464C173.744 54.9297 171.585 54.6965 169.425 54.753C167.154 54.7488 164.919 55.3193 162.928 56.4118C160.859 57.5398 159.005 59.0253 157.452 60.8C155.821 62.6517 154.473 64.7358 153.452 66.9844C152.424 69.1866 151.665 71.5059 151.194 73.8914C150.061 78.2814 150.465 82.9284 152.338 87.0559C153.263 88.645 154.621 89.936 156.254 90.7767C157.886 91.6174 159.724 91.9728 161.551 91.801V91.801Z" fill="#CC0229"/>
<path d="M249.283 41.7692C257.585 41.7692 263.663 43.9915 267.516 48.4363C271.369 52.881 272.511 59.7296 270.944 68.9818L264.925 103.561L248.74 104.163L254.939 68.9877C255.261 67.0979 255.24 65.1654 254.878 63.283C254.426 60.8572 253.132 58.6698 251.227 57.1077C249.322 55.5456 246.927 54.7093 244.466 54.7465C242.473 54.7381 240.492 55.0542 238.6 55.6827C236.734 56.3048 235.081 56.9386 233.64 57.5842C231.937 58.3772 230.289 59.2842 228.707 60.299L222.385 103.561L206.258 104.163L213.137 56.7534C213.731 52.6651 215.687 48.8989 218.689 46.0684C221.69 43.2379 225.558 41.5101 229.664 41.1665V47.9244H230.265C232 46.7067 233.858 45.6752 235.808 44.8468C237.781 44.0357 239.799 43.3402 241.852 42.7638C244.271 42.0858 246.772 41.751 249.283 41.7692V41.7692Z" fill="#CC0229"/>
<path d="M279.565 72.0837C280.803 63.1796 285.063 54.9754 291.628 48.8527C298.406 43.1498 307.069 40.2012 315.908 40.5882C320.499 40.4345 325.054 41.4511 329.147 43.5429C332.571 45.3816 335.493 48.0332 337.659 51.2661C339.782 54.483 341.169 58.1301 341.723 61.947C342.325 65.912 342.264 69.9497 341.542 73.8945C340.797 77.988 339.49 81.9584 337.659 85.6929C335.81 89.5135 333.328 92.9923 330.32 95.9817C327.004 99.2765 323.06 101.867 318.723 103.598C314.386 105.329 309.746 106.166 305.079 106.057C300.93 106.123 296.818 105.257 293.045 103.524C289.593 101.929 286.587 99.5042 284.293 96.4644C281.949 93.2729 280.327 89.6069 279.541 85.7222C278.634 81.2207 278.642 76.582 279.565 72.0837V72.0837ZM313.697 53.5568C311.252 53.5049 308.839 54.1208 306.716 55.3384C304.737 56.5026 302.993 58.0276 301.573 59.8348C300.133 61.6629 298.955 63.6834 298.072 65.8378C297.223 67.8473 296.587 69.9408 296.176 72.0837C295.765 74.4848 295.564 76.9173 295.575 79.3534C295.543 81.7381 295.939 84.1092 296.742 86.3541C297.474 88.3942 298.729 90.2046 300.382 91.6023C302.368 93.101 304.822 93.8396 307.302 93.6853C309.945 93.7728 312.557 93.0922 314.823 91.7252C316.85 90.4362 318.599 88.7531 319.966 86.7753C321.345 84.7936 322.439 82.627 323.216 80.3393C323.948 78.2334 324.52 76.0751 324.928 73.8829C325.402 71.3771 325.544 68.8195 325.349 66.2766C325.194 64.0414 324.634 61.8532 323.694 59.8202C322.838 57.9854 321.508 56.4131 319.844 55.2653C318.012 54.0774 315.862 53.4821 313.682 53.5597L313.697 53.5568Z" fill="#CC0229"/>
<path d="M51.4274 103.201C44.2135 106.649 36.3101 108.4 28.3194 108.321C10.1854 108.321 1.45105 97.2713 1.45105 81.2427C1.45105 61.4374 15.9588 39.8826 38.5299 39.8826C51.4273 39.8826 59.622 47.4273 59.622 58.3393C59.622 75.1782 42.0249 80.5728 16.7669 80.0286C16.5198 83.2284 17.1239 86.4366 18.5173 89.3258C19.9276 91.5732 21.9262 93.3892 24.2952 94.5757C26.6641 95.7623 29.3125 96.2737 31.9515 96.0543C38.212 96.0995 44.3898 94.6198 49.9541 91.7422L51.4274 103.201ZM36.5171 51.6049C26.7091 51.6049 20.2618 60.3608 18.3802 68.3092C34.5012 68.5813 44.8459 66.2878 44.8459 58.4768C44.843 54.1647 41.4852 51.6019 36.5141 51.6019L36.5171 51.6049Z" fill="#CC0229" stroke="#CC0229" stroke-width="3.28571" stroke-miterlimit="10"/>
<path d="M402.617 65.4418L431.953 13.041C433.912 9.54252 436.686 6.57201 440.039 4.38376C443.392 2.19552 447.224 0.854724 451.207 0.476157L456.135 0.00512695L414.543 76.3772C410.841 83.1789 401.042 83.4451 401.042 83.4451L399.505 71.4712L402.617 65.4418Z" fill="#1F8FFF"/>
<path d="M458.74 12.3717C457.757 14.1884 456.858 15.853 455.951 17.5146C443.06 41.1991 430.168 64.8837 417.273 88.5682C415.248 92.4351 412.138 95.6228 408.327 97.7381C404.516 99.8534 400.171 100.804 395.828 100.472C394.313 87.3502 392.795 74.2051 391.274 61.0367L390.886 60.8816C390.563 61.3304 390.262 61.7951 389.985 62.2742L374.118 92.9067C373.17 94.7378 371.75 96.2806 370.005 97.3744C368.261 98.4683 366.256 99.0732 364.199 99.1262C360.768 99.2169 356.815 99.331 354.338 99.4187C352.279 86.5701 350.222 73.7507 348.139 60.7822C350.649 60.5704 353.175 60.8842 355.558 61.7036C357.94 62.523 360.127 63.8301 361.979 65.5419C365.561 69.1072 367.633 73.9218 367.761 78.9814L368.19 79.0722C368.507 78.6776 368.8 78.2633 369.065 77.8318C374.03 68.4059 378.99 58.9772 383.943 49.5455C385.174 47.2051 386.432 44.8648 387.616 42.5244C387.767 42.2037 388.002 41.9302 388.296 41.7333C388.59 41.5364 388.932 41.4236 389.285 41.4069C392.462 41.3903 395.534 42.5501 397.911 44.6641C400.288 46.7782 401.804 49.6976 402.168 52.863C403.022 60.6915 403.962 68.5113 404.869 76.3369C404.916 76.7289 405.015 77.115 405.161 77.7996C405.517 77.1969 405.744 76.8078 405.978 76.41C414.896 60.4809 423.394 45.2802 434.375 25.6972C436.508 21.9496 439.529 18.7875 443.172 16.4912C446.816 14.1949 450.967 12.8352 455.26 12.5326C456.225 12.4565 457.188 12.3571 458.154 12.2781C458.351 12.2933 458.547 12.3246 458.74 12.3717V12.3717Z" fill="#505050"/>
<path d="M460.014 16.5429C459.028 18.3625 458.13 20.0242 457.226 21.6858C444.335 45.3723 431.442 69.0568 418.548 92.7394C416.522 96.6058 413.412 99.7931 409.601 101.908C405.791 104.024 401.446 104.974 397.103 104.643L392.549 65.2079L392.158 65.0499C391.866 65.5121 391.51 65.9539 391.257 66.4453L375.392 97.0661C374.444 98.897 373.024 100.44 371.28 101.533C369.535 102.627 367.53 103.232 365.474 103.286C362.043 103.376 358.093 103.49 355.616 103.578C353.553 90.7296 351.497 77.9102 349.417 64.9416C351.926 64.7293 354.453 65.0425 356.835 65.8614C359.218 66.6803 361.404 67.987 363.256 69.6985C366.839 73.2636 368.912 78.0781 369.041 83.138L369.47 83.2287C369.788 82.8346 370.081 82.4202 370.345 81.9883C375.311 72.5644 380.27 63.1357 385.224 53.702C386.455 51.3617 387.715 49.0213 388.897 46.6809C389.048 46.3611 389.283 46.0886 389.577 45.8923C389.871 45.696 390.213 45.5834 390.565 45.5663C393.743 45.5496 396.815 46.7094 399.193 48.8234C401.571 50.9374 403.087 53.8568 403.451 57.0224C404.306 64.851 405.242 72.6707 406.152 80.4963C406.196 80.8883 406.298 81.2745 406.444 81.959C406.8 81.3535 407.028 80.9673 407.261 80.5694C416.727 63.6661 426.192 46.7619 435.658 29.8566C437.793 26.1118 440.815 22.9527 444.458 20.6589C448.101 18.3652 452.252 17.0077 456.543 16.7067C457.509 16.6306 458.474 16.5311 459.437 16.4492C459.632 16.4649 459.825 16.4963 460.014 16.5429V16.5429Z" fill="#CC0229"/>
</g>
<defs>
<clipPath id="clip0_1722_450">
<rect width="460" height="129.519" fill="white"/>
</clipPath>
</defs>
</svg>
