<svg data-v-423bf9ae="" xmlns="http://www.w3.org/2000/svg" viewBox="0 0 525 90" class="iconLeft"><!----><!----><!----><g data-v-423bf9ae="" id="789e02ea-4ae1-45ce-9952-7b0fbfe635d5" fill="#000000" transform="matrix(5.736137646384677,0,0,5.736137646384677,99.76775584515357,-1.4627129581636922)"><path d="M1.18 13.15C1.32 13.19 1.53 13.22 1.71 13.22C1.88 13.22 2.06 13.20 2.23 13.17L2.62 7.38C2.66 6.73 2.69 5.53 2.73 4.73L2.80 4.73L5.03 11.66C5.17 11.69 5.36 11.72 5.54 11.72C5.73 11.72 5.92 11.69 6.09 11.66L8.30 4.73L8.37 4.73C8.40 5.53 8.44 6.73 8.48 7.38L8.89 13.17C9.04 13.20 9.20 13.22 9.38 13.22C9.55 13.22 9.77 13.19 9.93 13.15L9.18 3.60C8.89 3.56 8.60 3.56 8.46 3.56C8.30 3.56 8.06 3.56 7.77 3.60L6.16 8.51C5.99 8.99 5.63 10.35 5.59 10.56L5.52 10.56C5.49 10.35 5.11 8.99 4.94 8.51L3.33 3.60C3.09 3.56 2.81 3.56 2.65 3.56C2.51 3.56 2.18 3.56 1.92 3.60ZM17.26 10.04C17.32 9.70 17.33 9.46 17.33 9.11C17.33 7.46 16.42 6.12 14.63 6.12C12.84 6.12 11.83 7.64 11.83 9.72C11.83 11.63 12.50 13.33 14.59 13.33C15.54 13.33 16.49 12.99 17.14 12.54C17.11 12.32 16.95 12.00 16.76 11.83C16.14 12.17 15.48 12.42 14.73 12.42C13.43 12.42 12.96 11.44 12.92 10.04ZM14.63 6.92C15.82 6.92 16.28 7.90 16.28 9.06L16.28 9.24L12.92 9.24C12.99 7.85 13.58 6.92 14.63 6.92ZM24.63 8.36C24.63 7.17 24.15 6.17 22.82 6.17C21.94 6.17 21.03 6.58 20.41 7.17L20.41 6.97C20.41 6.51 20.33 6.24 19.85 6.24L19.46 6.24L19.38 6.33L19.38 13.16C19.52 13.19 19.70 13.20 19.91 13.20C20.09 13.20 20.27 13.19 20.41 13.16L20.41 8.19C20.96 7.56 21.84 7.11 22.57 7.11C23.37 7.11 23.59 7.57 23.59 8.68L23.59 12.56C23.59 13.02 23.73 13.24 24.12 13.24C24.37 13.24 24.64 13.16 24.78 13.02C24.65 12.71 24.63 12.29 24.63 11.83ZM30.04 6.29L28.27 6.31L28.27 4.21L28.18 4.13L27.80 4.13C27.34 4.13 27.26 4.37 27.26 4.83L27.26 6.30L26.26 6.29C26.24 6.43 26.22 6.54 26.22 6.68C26.22 6.83 26.24 6.94 26.26 7.08L27.26 7.07L27.26 12.05C27.26 12.81 27.75 13.22 28.53 13.22C29.08 13.22 29.51 13.19 29.95 13.13C29.97 13.08 29.97 12.99 29.97 12.92C29.97 12.71 29.93 12.50 29.88 12.36L28.81 12.36C28.41 12.36 28.27 12.12 28.27 11.77L28.27 7.07L30.04 7.08C30.07 6.94 30.09 6.83 30.09 6.68C30.09 6.54 30.07 6.43 30.04 6.29ZM36.89 9.73C36.89 8.61 36.64 7.62 35.91 6.87C35.42 6.37 34.78 6.12 33.98 6.12C33.19 6.12 32.55 6.37 32.06 6.87C31.33 7.62 31.08 8.61 31.08 9.73C31.08 10.85 31.33 11.84 32.06 12.59C32.55 13.08 33.19 13.33 33.98 13.33C34.78 13.33 35.42 13.08 35.91 12.59C36.64 11.84 36.89 10.85 36.89 9.73ZM32.16 9.73C32.16 8.36 32.59 6.93 33.99 6.93C35.38 6.93 35.83 8.36 35.83 9.73C35.83 11.12 35.38 12.52 33.99 12.52C32.59 12.52 32.16 11.12 32.16 9.73ZM38.47 6.78C38.72 7.01 38.98 7.50 38.98 8.20L38.98 13.16C39.12 13.19 39.30 13.20 39.51 13.20C39.69 13.20 39.87 13.19 40.01 13.16L40.01 8.50C40.29 7.88 40.81 7.22 41.72 7.22C41.87 7.22 42.04 7.22 42.21 7.24C42.38 6.97 42.45 6.58 42.45 6.26C42.18 6.22 41.96 6.20 41.80 6.20C40.85 6.20 40.25 6.75 39.93 7.43C39.79 6.83 39.45 6.38 38.92 6.19C38.72 6.31 38.53 6.58 38.47 6.78ZM49.22 6.62C49.42 6.68 49.52 6.69 49.70 6.69C50.19 6.69 50.30 6.37 50.30 6.06C50.30 4.77 49.07 3.43 47.04 3.43C45.07 3.43 43.36 4.97 43.36 8.43C43.36 10.95 44.34 13.33 46.87 13.33C48.24 13.33 49.43 12.74 50.18 11.98C50.09 11.73 49.85 11.44 49.59 11.28C48.69 12.05 47.85 12.39 47.03 12.39C45.46 12.39 44.49 10.92 44.49 8.43C44.49 5.74 45.42 4.33 47.04 4.33C48.69 4.33 49.25 5.63 49.22 6.62ZM57.39 9.73C57.39 8.61 57.13 7.62 56.41 6.87C55.92 6.37 55.27 6.12 54.47 6.12C53.69 6.12 53.05 6.37 52.56 6.87C51.83 7.62 51.58 8.61 51.58 9.73C51.58 10.85 51.83 11.84 52.56 12.59C53.05 13.08 53.69 13.33 54.47 13.33C55.27 13.33 55.92 13.08 56.41 12.59C57.13 11.84 57.39 10.85 57.39 9.73ZM52.65 9.73C52.65 8.36 53.09 6.93 54.49 6.93C55.87 6.93 56.32 8.36 56.32 9.73C56.32 11.12 55.87 12.52 54.49 12.52C53.09 12.52 52.65 11.12 52.65 9.73ZM60.86 12.36C60.52 12.36 60.34 12.17 60.34 11.76L60.34 3.57C60.34 3.11 60.26 2.87 59.78 2.87L59.40 2.87L59.32 2.95L59.32 12.05C59.32 12.81 59.79 13.22 60.51 13.22C60.80 13.22 61.25 13.17 61.53 13.13C61.54 13.08 61.54 12.99 61.54 12.92C61.54 12.71 61.52 12.50 61.45 12.36ZM68.47 9.73C68.47 8.61 68.22 7.62 67.49 6.87C67.00 6.37 66.36 6.12 65.56 6.12C64.78 6.12 64.13 6.37 63.64 6.87C62.92 7.62 62.66 8.61 62.66 9.73C62.66 10.85 62.92 11.84 63.64 12.59C64.13 13.08 64.78 13.33 65.56 13.33C66.36 13.33 67.00 13.08 67.49 12.59C68.22 11.84 68.47 10.85 68.47 9.73ZM63.74 9.73C63.74 8.36 64.18 6.93 65.58 6.93C66.96 6.93 67.41 8.36 67.41 9.73C67.41 11.12 66.96 12.52 65.58 12.52C64.18 12.52 63.74 11.12 63.74 9.73ZM70.06 6.78C70.31 7.01 70.56 7.50 70.56 8.20L70.56 13.16C70.70 13.19 70.88 13.20 71.09 13.20C71.27 13.20 71.46 13.19 71.60 13.16L71.60 8.50C71.88 7.88 72.39 7.22 73.30 7.22C73.46 7.22 73.63 7.22 73.79 7.24C73.96 6.97 74.03 6.58 74.03 6.26C73.77 6.22 73.54 6.20 73.39 6.20C72.44 6.20 71.83 6.75 71.51 7.43C71.37 6.83 71.04 6.38 70.50 6.19C70.31 6.31 70.11 6.58 70.06 6.78Z"></path></g><defs data-v-423bf9ae=""><linearGradient data-v-423bf9ae="" gradientTransform="rotate(25)" id="0e7595f7-e1cd-4fb8-9bfc-b45a09834842" x1="0%" y1="0%" x2="100%" y2="0%"><stop data-v-423bf9ae="" offset="0%" style="stop-color: rgb(54, 22, 172); stop-opacity: 1;"></stop><stop data-v-423bf9ae="" offset="100%" style="stop-color: rgb(224, 155, 237); stop-opacity: 1;"></stop></linearGradient></defs><g data-v-423bf9ae="" id="55bdce70-abe2-4fbf-ba89-1d169ff6808d" transform="matrix(3.2904957746353154,0,0,3.2904957746353154,1320.6300902472055,-935.7571894939056)" stroke="none" fill="url(#0e7595f7-e1cd-4fb8-9bfc-b45a09834842)"><path d="M-396 292.8c.5-.8.5-1.7.1-2.5-.2-.5-.6-.9-1.1-1.1-.3-.2-.6-.3-1-.3h-.4c-.9 0-1.8.5-2.3 1.3-.6 1-.4 2.1.2 3 .2.3.5.5.8.7.4.2.9.4 1.3.4h.2c1-.3 1.8-.7 2.2-1.5zM-395.5 304.9c-.5-.5-1.3-.5-1.8 0s-.5 1.3 0 1.8c1.5 1.4 3.2 2.5 5.1 3.2v-.6c0-.7.2-1.3.5-1.9-1.4-.6-2.7-1.4-3.8-2.5zM-380.5 304.9c-1.1 1.1-2.4 1.9-3.8 2.4.3.6.5 1.2.5 1.9 0 .2 0 .4-.1.6 2-.6 3.7-1.7 5.2-3.2.5-.5.5-1.3 0-1.8-.5-.4-1.3-.4-1.8.1zM-398.5 295.6c-.7 0-1.3-.2-1.9-.6-.2-.1-.3-.2-.5-.3-.4 2-.4 4.1.2 6.1.1.6.7.9 1.2.9h.3c.7-.2 1.1-.9.9-1.5-.4-1.6-.4-3.1-.2-4.6zM-389.9 285.6c-.2-.7-.9-1.1-1.5-.9-2 .5-3.8 1.5-5.3 2.9.2.1.4.2.5.3.6.3 1.1.8 1.4 1.4 1.2-1 2.5-1.7 4-2.1.7-.3 1.1-.9.9-1.6zM-379.8 287.8c.2-.1.4-.2.5-.3-1.5-1.4-3.3-2.3-5.3-2.9-.7-.2-1.3.2-1.5.9-.2.7.2 1.3.9 1.5 1.5.4 2.8 1.1 4 2.1.3-.4.8-.9 1.4-1.3zM-375.2 294.7c-.2.1-.3.2-.5.4-.6.3-1.2.5-1.9.6.3 1.5.2 3.1-.2 4.5-.2.7.2 1.3.9 1.5h.3c.5 0 1.1-.4 1.2-.9.6-2 .7-4.1.2-6.1zM-376.4 293.8c.3-.2.6-.4.8-.7.6-.8.7-2 .2-2.9-.5-.9-1.4-1.3-2.3-1.3h-.3c-.3 0-.7.2-1 .3-.5.3-.8.7-1 1.1-.4.8-.4 1.7.1 2.5s1.3 1.3 2.2 1.3h.1c.3 0 .8-.1 1.2-.3zM-388 306.6c-.9 0-1.8.5-2.2 1.2-.3.4-.4.9-.4 1.5 0 .4.1.7.2 1 .4 1 1.4 1.6 2.5 1.6s2-.7 2.5-1.6c.1-.3.2-.7.2-1 0-.5-.2-1-.4-1.5-.7-.8-1.5-1.2-2.4-1.2z"></path></g><!----></svg>