<svg width="95" height="33" viewBox="0 0 95 33" fill="none" xmlns="http://www.w3.org/2000/svg">
<path d="M52.6394 4.88525C58.721 4.88525 64.1402 9.31847 64.1402 16.5138C64.1402 23.7092 58.721 28.1115 52.6394 28.1115C46.5577 28.1115 41.1719 23.6807 41.1719 16.5138C41.1719 9.34699 46.591 4.88525 52.6394 4.88525ZM52.6394 23.9017C56.1068 23.9017 59.6361 21.5247 59.6361 16.4829C59.6361 11.4412 56.1068 9.05699 52.6394 9.05699C49.1719 9.05699 45.6759 11.4459 45.6759 16.4734C45.6759 21.5009 49.2053 23.9017 52.6394 23.9017Z" fill="black"/>
<path d="M65.4346 27.641V23.9637L72.7745 15.7914H65.6252V12.1782H78.1341V15.6654L70.5725 23.9851H78.2604V27.6315L65.4346 27.641Z" fill="black"/>
<path d="M94.1335 23.2101C93.3447 25.8795 90.8877 28.1116 87.0747 28.1116C82.8209 28.1116 79.0723 25.0642 79.0723 19.8466C79.0723 14.9118 82.7279 11.7075 86.6982 11.7075C91.4906 11.7075 94.3718 14.762 94.3718 19.7206C94.3718 20.3172 94.3074 20.9471 94.3074 21.0089H83.2046C83.2999 23.0532 85.0324 24.5294 87.1129 24.5294C89.0646 24.5294 90.137 23.5548 90.6398 22.1713L94.1335 23.2101ZM90.2323 18.1493C90.168 16.609 89.1599 15.0996 86.7649 15.0996C84.5915 15.0996 83.3928 16.735 83.2999 18.1493H90.2323Z" fill="black"/>
<path d="M16.0657 8.94569L22.9933 2.03558C21.1014 1.1368 19.0517 0.615174 16.9593 0.5L8.49219 8.94569C9.49675 9.94697 10.8588 10.5094 12.2789 10.5094C13.6991 10.5094 15.0611 9.94697 16.0657 8.94569Z" fill="#1246EA"/>
<path d="M16.0659 24.0545L9.14062 30.9622C11.0311 31.8631 13.0803 32.3856 15.1723 32.5002L23.6394 24.0545C23.1423 23.5581 22.552 23.1644 21.9023 22.8957C21.2525 22.627 20.556 22.4888 19.8527 22.4888C19.1493 22.4888 18.4528 22.627 17.8031 22.8957C17.1533 23.1644 16.563 23.5581 16.0659 24.0545Z" fill="#1246EA"/>
<path d="M2.55153 7.83345C0.719064 10.6736 -0.165189 14.0194 0.0254463 17.3916L8.4926 8.94591C7.72985 8.18523 6.75457 7.67204 5.69449 7.47354C4.63441 7.27504 3.53893 7.40048 2.55153 7.83345Z" fill="#1246EA"/>
<path d="M8.49267 16.4998L1.56738 23.4075C2.35286 25.0513 3.41433 26.5491 4.70592 27.836L16.0662 16.4998C15.5691 16.0034 14.9788 15.6097 14.329 15.341C13.6793 15.0724 12.9828 14.9341 12.2794 14.9341C11.576 14.9341 10.8796 15.0724 10.2298 15.341C9.58006 15.6097 8.98976 16.0034 8.49267 16.4998Z" fill="#1246EA"/>
<path d="M23.6399 16.4999L30.5676 9.58979C29.7793 7.94916 28.7172 6.4541 27.4266 5.16846L16.0664 16.4999C17.071 17.5012 18.433 18.0636 19.8532 18.0636C21.2733 18.0636 22.6353 17.5012 23.6399 16.4999Z" fill="#1246EA"/>
<path d="M32.1068 15.6089L23.6396 24.0546C24.4028 24.8155 25.3785 25.3288 26.439 25.5273C27.4995 25.7258 28.5953 25.6002 29.5831 25.167C31.4135 22.326 32.2968 18.9806 32.1068 15.6089Z" fill="#1246EA"/>
</svg>
